<svg id="Layer_1" data-name="Layer 1" xmlns="http://www.w3.org/2000/svg" viewBox="0 0 16 12.52"><defs><style>.cls-1{fill:#fde047;}</style></defs><polygon class="cls-1" points="10.32 12.52 7.23 12.52 7.74 11.62 8.26 10.73 8.77 9.83 9.29 10.73 9.29 10.73 9.81 11.62 10.32 12.52"/><polygon points="11.87 4.47 11.36 5.36 10.84 6.26 10.32 7.15 9.29 7.15 8.77 6.26 7.74 4.47 11.87 4.47"/><polygon points="8.77 9.83 8.77 9.83 8.26 10.73 7.74 11.62 7.23 12.52 6.19 10.73 5.68 9.83 5.68 9.83 5.16 8.94 5.16 8.94 4.64 8.05 3.61 6.26 3.1 5.36 2.06 3.58 1.55 2.68 1.03 1.79 1.03 1.79 1.03 1.79 0.52 0.89 0 0 3.1 0 4.64 2.68 5.16 3.58 5.16 3.58 5.68 4.47 6.19 5.36 6.71 6.26 6.71 6.26 7.23 7.15 7.23 7.15 7.74 8.05 7.74 8.05 8.26 8.94 8.26 8.94 8.77 9.83 8.77 9.83"/><polygon points="14.45 0 13.94 0.89 13.42 1.79 13.42 1.79 12.9 2.68 6.71 2.68 6.19 1.79 5.68 0.89 5.68 0.89 5.16 0 14.45 0"/><polygon class="cls-1" points="16 2.68 16 2.68 12.9 2.68 13.42 1.79 13.42 1.79 13.94 0.89 14.45 0 14.97 0.89 15.48 1.79 15.48 1.79 16 2.68"/><polygon class="cls-1" points="13.42 7.15 10.32 7.15 10.84 6.26 11.36 5.36 11.87 4.47 12.9 6.26 13.42 7.15"/></svg>